<svg aria-hidden="true" xmlns="http://www.w3.org/2000/svg" xmlns:xlink="http://www.w3.org/1999/xlink">
	<symbol viewBox="0 0 24 16" id="burger" xmlns="http://www.w3.org/2000/svg">
		<path fill-rule="evenodd" clip-rule="evenodd" d="M0 2.66667V0H24V2.66667H0ZM0 9.33333H24V6.66667H0V9.33333ZM0 16H24V13.3333H0V16Z" />
	</symbol>
	<symbol viewBox="0 0 19 19" id="close" xmlns="http://www.w3.org/2000/svg">
		<path d="M18.6667 1.88L16.7867 0L9.33333 7.45334L1.88 0L0 1.88L7.45334 9.33333L0 16.7867L1.88 18.6667L9.33333 11.2133L16.7867 18.6667L18.6667 16.7867L11.2133 9.33333L18.6667 1.88Z" />
	</symbol>
	<symbol viewBox="0 0 20 20" id="facebook" xmlns="http://www.w3.org/2000/svg">
		<path d="M13.3313 3.32083H15.1571V0.140833C14.8421 0.0975 13.7588 0 12.4971 0C9.86458 0 8.06125 1.65583 8.06125 4.69917V7.5H5.15625V11.055H8.06125V20H11.6229V11.0558H14.4104L14.8529 7.50083H11.6221V5.05167C11.6229 4.02417 11.8996 3.32083 13.3313 3.32083Z" />
	</symbol>
	<symbol viewBox="0 0 20 20" id="instagram" xmlns="http://www.w3.org/2000/svg">
		<g clip-path="url(#dclip0_1374_233)">
			<path d="M19.9804 5.88005C19.9336 4.81738 19.7617 4.0868 19.5156 3.45374C19.2616 2.78176 18.8709 2.18014 18.359 1.68002C17.8589 1.1721 17.2533 0.777435 16.5891 0.527447C15.9524 0.281274 15.2256 0.109427 14.163 0.0625732C13.0924 0.0117516 12.7525 0 10.0371 0C7.32173 0 6.98185 0.0117516 5.91521 0.0586052C4.85253 0.105459 4.12195 0.277459 3.48904 0.523479C2.81692 0.777435 2.2153 1.16814 1.71517 1.68002C1.20726 2.18014 0.812743 2.78573 0.562603 3.44992C0.31643 4.0868 0.144583 4.81341 0.0977294 5.87609C0.0469078 6.9467 0.0351562 7.28658 0.0351562 10.002C0.0351562 12.7173 0.0469078 13.0572 0.0937614 14.1239C0.140615 15.1865 0.312615 15.9171 0.558787 16.5502C0.812743 17.2221 1.20726 17.8238 1.71517 18.3239C2.2153 18.8318 2.82088 19.2265 3.48508 19.4765C4.12195 19.7226 4.84856 19.8945 5.91139 19.9413C6.97788 19.9883 7.31791 19.9999 10.0333 19.9999C12.7487 19.9999 13.0885 19.9883 14.1552 19.9413C15.2179 19.8945 15.9484 19.7226 16.5813 19.4765C17.9254 18.9568 18.9881 17.8941 19.5078 16.5502C19.7538 15.9133 19.9258 15.1865 19.9727 14.1239C20.0195 13.0572 20.0313 12.7173 20.0313 10.002C20.0313 7.28658 20.0273 6.9467 19.9804 5.88005ZM18.1794 14.0457C18.1364 15.0225 17.9723 15.5499 17.8356 15.9015C17.4995 16.7728 16.808 17.4643 15.9367 17.8004C15.5851 17.9372 15.0538 18.1012 14.0809 18.1441C13.026 18.1911 12.7096 18.2027 10.0411 18.2027C7.37255 18.2027 7.05221 18.1911 6.00113 18.1441C5.02438 18.1012 4.49693 17.9372 4.1453 17.8004C3.71171 17.6402 3.31704 17.3862 2.9967 17.0541C2.6646 16.7298 2.41065 16.3391 2.2504 15.9055C2.11365 15.5539 1.94959 15.0225 1.90671 14.0497C1.8597 12.9948 1.8481 12.6783 1.8481 10.0097C1.8481 7.34122 1.8597 7.02087 1.90671 5.96995C1.94959 4.99319 2.11365 4.46575 2.2504 4.11412C2.41065 3.68038 2.6646 3.28586 3.00067 2.96536C3.32483 2.63327 3.71553 2.37931 4.14927 2.21921C4.5009 2.08247 5.03231 1.9184 6.0051 1.87537C7.05999 1.82851 7.37652 1.81676 10.0449 1.81676C12.7174 1.81676 13.0337 1.82851 14.0848 1.87537C15.0616 1.9184 15.589 2.08247 15.9407 2.21921C16.3742 2.37931 16.7689 2.63327 17.0893 2.96536C17.4213 3.28967 17.6753 3.68038 17.8356 4.11412C17.9723 4.46575 18.1364 4.99701 18.1794 5.96995C18.2263 7.02484 18.238 7.34122 18.238 10.0097C18.238 12.6783 18.2263 12.9908 18.1794 14.0457Z" />
			<path d="M10.0371 4.86414C7.20074 4.86414 4.89941 7.16531 4.89941 10.0019C4.89941 12.8384 7.20074 15.1396 10.0371 15.1396C12.8737 15.1396 15.1749 12.8384 15.1749 10.0019C15.1749 7.16531 12.8737 4.86414 10.0371 4.86414ZM10.0371 13.3346C8.19702 13.3346 6.70442 11.8421 6.70442 10.0019C6.70442 8.16159 8.19702 6.66914 10.0371 6.66914C11.8774 6.66914 13.3698 8.16159 13.3698 10.0019C13.3698 11.8421 11.8774 13.3346 10.0371 13.3346Z" />
			<path d="M16.5777 4.6611C16.5777 5.32346 16.0407 5.86052 15.3781 5.86052C14.7158 5.86052 14.1787 5.32346 14.1787 4.6611C14.1787 3.99858 14.7158 3.46167 15.3781 3.46167C16.0407 3.46167 16.5777 3.99858 16.5777 4.6611Z" />
		</g>
		<defs>
			<clipPath id="dclip0_1374_233">
				<rect width="20" height="20" />
			</clipPath>
		</defs>
	</symbol>
	<symbol viewBox="0 0 20 20" id="linkedin" xmlns="http://www.w3.org/2000/svg">
		<g clip-path="url(#eclip0_1374_217)">
			<path d="M19.9951 20.0001V19.9993H20.0001V12.6643C20.0001 9.07593 19.2276 6.31177 15.0326 6.31177C13.0159 6.31177 11.6626 7.41843 11.1101 8.4676H11.0517V6.64677H7.07422V19.9993H11.2159V13.3876C11.2159 11.6468 11.5459 9.96343 13.7017 9.96343C15.8259 9.96343 15.8576 11.9501 15.8576 13.4993V20.0001H19.9951Z" />
			<path d="M0.330078 6.64746H4.47675V20H0.330078V6.64746Z" />
			<path d="M2.40167 0C1.07583 0 0 1.07583 0 2.40167C0 3.7275 1.07583 4.82583 2.40167 4.82583C3.7275 4.82583 4.80333 3.7275 4.80333 2.40167C4.8025 1.07583 3.72667 0 2.40167 0V0Z" />
		</g>
		<defs>
			<clipPath id="eclip0_1374_217">
				<rect width="20" height="20" />
			</clipPath>
		</defs>
	</symbol>
	<symbol viewBox="0 0 24 24" id="mail" xmlns="http://www.w3.org/2000/svg">
		<path fill-rule="evenodd" clip-rule="evenodd" d="M4.8 5H19.2C20.19 5 21 5.7875 21 6.75V17.25C21 18.2125 20.19 19 19.2 19H4.8C3.81 19 3 18.2125 3 17.25V6.75C3 5.7875 3.81 5 4.8 5Z" stroke-linecap="round" stroke-linejoin="round" />
		<path d="M20 7L12 13L4 7" stroke-linecap="round" stroke-linejoin="round" />
	</symbol>
	<symbol viewBox="0 0 24 24" id="map" xmlns="http://www.w3.org/2000/svg">
		<path fill-rule="evenodd" clip-rule="evenodd" d="M20 10.3636C20 16.0909 12 21 12 21C12 21 4 16.0909 4 10.3636C4 6.29681 7.58172 3 12 3C16.4183 3 20 6.29681 20 10.3636V10.3636Z" stroke-linecap="round" stroke-linejoin="round" />
		<path fill-rule="evenodd" clip-rule="evenodd" d="M8.5 11C8.5 9.067 10.067 7.5 12 7.5C13.933 7.5 15.5 9.067 15.5 11C15.5 12.933 13.933 14.5 12 14.5C10.067 14.5 8.5 12.933 8.5 11ZM12 8.5C10.6193 8.5 9.5 9.61929 9.5 11C9.5 12.3807 10.6193 13.5 12 13.5C13.3807 13.5 14.5 12.3807 14.5 11C14.5 9.61929 13.3807 8.5 12 8.5Z" />
	</symbol>
	<symbol viewBox="0 0 24 24" id="phone" xmlns="http://www.w3.org/2000/svg">
		<path fill-rule="evenodd" clip-rule="evenodd" d="M19.9995 16.0028V18.4163C20.0013 18.8693 19.8121 19.3021 19.4783 19.6084C19.1444 19.9147 18.6969 20.066 18.2457 20.0252C15.7702 19.7562 13.3923 18.9103 11.3031 17.5555C9.35937 16.3203 7.71141 14.6724 6.47627 12.7286C5.11669 10.6299 4.2706 8.24046 4.00654 5.75383C3.96589 5.30403 4.11616 4.85785 4.42065 4.52429C4.72514 4.19073 5.1558 4.0005 5.60744 4.00008H8.02087C8.82845 3.99213 9.51679 4.5841 9.62982 5.38378C9.73168 6.15613 9.92059 6.91447 10.1929 7.64435C10.414 8.23232 10.2726 8.89515 9.83093 9.34179L8.80925 10.3635C9.95447 12.3775 11.6221 14.0451 13.6361 15.1903L14.6578 14.1686C15.1044 13.727 15.7673 13.5856 16.3552 13.8066C17.0851 14.079 17.8435 14.2679 18.6158 14.3698C19.4247 14.4839 20.0198 15.1861 19.9995 16.0028Z" stroke-linecap="round" stroke-linejoin="round" />
	</symbol>
	<symbol viewBox="0 0 20 20" id="twitter" xmlns="http://www.w3.org/2000/svg">
		<g clip-path="url(#jclip0_1374_227)">
			<path d="M20 3.79875C19.2563 4.125 18.4637 4.34125 17.6375 4.44625C18.4875 3.93875 19.1363 3.14125 19.4412 2.18C18.6488 2.6525 17.7738 2.98625 16.8412 3.1725C16.0887 2.37125 15.0162 1.875 13.8462 1.875C11.5763 1.875 9.74875 3.7175 9.74875 5.97625C9.74875 6.30125 9.77625 6.61375 9.84375 6.91125C6.435 6.745 3.41875 5.11125 1.3925 2.6225C1.03875 3.23625 0.83125 3.93875 0.83125 4.695C0.83125 6.115 1.5625 7.37375 2.6525 8.1025C1.99375 8.09 1.3475 7.89875 0.8 7.5975C0.8 7.61 0.8 7.62625 0.8 7.6425C0.8 9.635 2.22125 11.29 4.085 11.6712C3.75125 11.7625 3.3875 11.8062 3.01 11.8062C2.7475 11.8062 2.4825 11.7913 2.23375 11.7362C2.765 13.36 4.2725 14.5538 6.065 14.5925C4.67 15.6838 2.89875 16.3412 0.98125 16.3412C0.645 16.3412 0.3225 16.3263 0 16.285C1.81625 17.4563 3.96875 18.125 6.29 18.125C13.835 18.125 17.96 11.875 17.96 6.4575C17.96 6.27625 17.9538 6.10125 17.945 5.9275C18.7588 5.35 19.4425 4.62875 20 3.79875Z" />
		</g>
		<defs>
			<clipPath id="jclip0_1374_227">
				<rect width="20" height="20" />
			</clipPath>
		</defs>
	</symbol>
	<symbol id="icon-scroll-to-up" viewBox="0 0 32 32">
		<path d="M0 0h32v32h-32v-32z">
		</path>
		<path stroke-linejoin="round" stroke-linecap="round" stroke-miterlimit="4" stroke-width="2.6667" d="M8 16l8-8 8 8">
		</path>
		<path stroke-linejoin="round" stroke-linecap="round" stroke-miterlimit="4" stroke-width="2.6667" d="M8 24l8-8 8 8">
		</path>
	</symbol>
</svg>
